<svg width="225" height="100" viewBox="0 0 225 100" fill="none" xmlns="http://www.w3.org/2000/svg">
<path d="M0.0406264 48.6768C0.323091 52.6711 1.51089 56.551 3.51568 60.0278C7.74087 67.3792 14.9865 72.7016 22.7903 75.8652C32.5399 79.8177 43.4081 79.9395 53.755 79.0582C63.3652 78.2396 72.8777 76.3422 82.5233 75.9511C89.9827 75.7146 97.4496 75.8911 104.889 76.4796C119.323 77.4946 133.697 79.3777 147.978 81.6606C151.845 82.2713 155.705 82.9274 159.556 83.629C159.92 83.6608 160.28 83.7271 160.632 83.8269C160.701 83.8553 160.814 83.8331 160.878 83.873C160.994 83.9456 160.408 83.6891 160.763 83.9803C161.259 84.4952 161.701 85.0585 162.082 85.6614L167.356 92.3858C168.869 94.3142 170.272 96.657 172.227 98.177C173.606 99.2319 175.268 99.8589 177.006 99.9789C178.744 100.099 180.478 99.7064 181.991 98.8511C183.571 97.8619 184.831 96.4437 185.622 94.7652C186.835 92.5608 188.282 90.4911 189.939 88.5913C196.214 81.3391 204.935 76.8786 212.229 70.7766C215.762 67.942 218.778 64.5271 221.144 60.6811C223.162 57.2007 224.418 53.3378 224.827 49.3443C225.701 41.2346 223.189 32.9642 218.964 26.0651C214.368 18.6531 207.767 12.6666 199.909 8.78589C191.081 4.33029 181.312 2.15998 171.521 1.07846C161.124 -0.0698146 150.607 -0.0662351 140.161 0.0496945C128.436 0.178987 116.733 0.689773 105.052 1.58204C93.3539 2.47903 81.7023 3.75404 70.0969 5.40707C58.9609 6.99323 47.6889 8.64646 36.7884 11.4531C27.1588 13.9324 17.5562 17.8078 10.3654 24.8296C3.97181 31.073 -0.475076 39.6166 0.0406264 48.6768Z" fill="#F67669"/>
</svg>
